<mxfile host="app.diagrams.net" agent="Mozilla/5.0 (Windows NT 10.0; Win64; x64) AppleWebKit/537.36 (KHTML, like Gecko) Chrome/135.0.0.0 Safari/537.36" version="26.2.13">
  <diagram name="第 1 页" id="jyxMmHIa66-R3STNW0RJ">
    <mxGraphModel dx="985" dy="512" grid="1" gridSize="10" guides="1" tooltips="1" connect="1" arrows="1" fold="1" page="1" pageScale="1" pageWidth="827" pageHeight="1169" math="0" shadow="0">
      <root>
        <mxCell id="0" />
        <mxCell id="1" parent="0" />
        <mxCell id="HYjsnqHIl2bNOTF42dXb-4" value="" style="group" vertex="1" connectable="0" parent="1">
          <mxGeometry x="80" y="240" width="80" height="80" as="geometry" />
        </mxCell>
        <mxCell id="HYjsnqHIl2bNOTF42dXb-1" value="" style="ellipse;whiteSpace=wrap;html=1;aspect=fixed;" vertex="1" parent="HYjsnqHIl2bNOTF42dXb-4">
          <mxGeometry width="80" height="80" as="geometry" />
        </mxCell>
        <mxCell id="HYjsnqHIl2bNOTF42dXb-3" value="" style="shape=actor;whiteSpace=wrap;html=1;" vertex="1" parent="HYjsnqHIl2bNOTF42dXb-4">
          <mxGeometry x="20.004285714285714" y="10.11" width="40" height="42" as="geometry" />
        </mxCell>
        <mxCell id="HYjsnqHIl2bNOTF42dXb-5" value="Admin" style="text;html=1;align=center;verticalAlign=middle;resizable=0;points=[];autosize=1;strokeColor=none;fillColor=none;" vertex="1" parent="HYjsnqHIl2bNOTF42dXb-4">
          <mxGeometry x="10" y="50" width="60" height="30" as="geometry" />
        </mxCell>
        <mxCell id="HYjsnqHIl2bNOTF42dXb-6" value="zs_auth" style="rounded=0;whiteSpace=wrap;html=1;" vertex="1" parent="1">
          <mxGeometry x="360" y="280" width="120" height="40" as="geometry" />
        </mxCell>
        <mxCell id="HYjsnqHIl2bNOTF42dXb-7" value="zs_alert" style="rounded=0;whiteSpace=wrap;html=1;" vertex="1" parent="1">
          <mxGeometry x="600" y="280" width="120" height="40" as="geometry" />
        </mxCell>
        <mxCell id="HYjsnqHIl2bNOTF42dXb-8" value="" style="group" vertex="1" connectable="0" parent="1">
          <mxGeometry x="920" y="240" width="80" height="80" as="geometry" />
        </mxCell>
        <mxCell id="HYjsnqHIl2bNOTF42dXb-9" value="" style="ellipse;whiteSpace=wrap;html=1;aspect=fixed;" vertex="1" parent="HYjsnqHIl2bNOTF42dXb-8">
          <mxGeometry width="80" height="80" as="geometry" />
        </mxCell>
        <mxCell id="HYjsnqHIl2bNOTF42dXb-10" value="" style="shape=actor;whiteSpace=wrap;html=1;" vertex="1" parent="HYjsnqHIl2bNOTF42dXb-8">
          <mxGeometry x="20.004285714285714" y="10.11" width="40" height="42" as="geometry" />
        </mxCell>
        <mxCell id="HYjsnqHIl2bNOTF42dXb-11" value="User" style="text;html=1;align=center;verticalAlign=middle;resizable=0;points=[];autosize=1;strokeColor=none;fillColor=none;" vertex="1" parent="HYjsnqHIl2bNOTF42dXb-8">
          <mxGeometry x="15" y="50" width="50" height="30" as="geometry" />
        </mxCell>
        <mxCell id="HYjsnqHIl2bNOTF42dXb-12" value="" style="endArrow=classic;html=1;rounded=0;entryX=0;entryY=0.75;entryDx=0;entryDy=0;exitX=1;exitY=0.667;exitDx=0;exitDy=0;exitPerimeter=0;" edge="1" parent="1" source="HYjsnqHIl2bNOTF42dXb-5" target="HYjsnqHIl2bNOTF42dXb-6">
          <mxGeometry width="50" height="50" relative="1" as="geometry">
            <mxPoint x="550" y="420" as="sourcePoint" />
            <mxPoint x="600" y="370" as="targetPoint" />
          </mxGeometry>
        </mxCell>
        <mxCell id="HYjsnqHIl2bNOTF42dXb-13" value="" style="endArrow=classic;html=1;rounded=0;exitX=0.5;exitY=0;exitDx=0;exitDy=0;entryX=0;entryY=0;entryDx=0;entryDy=0;" edge="1" parent="1" source="HYjsnqHIl2bNOTF42dXb-7" target="HYjsnqHIl2bNOTF42dXb-9">
          <mxGeometry width="50" height="50" relative="1" as="geometry">
            <mxPoint x="860" y="350" as="sourcePoint" />
            <mxPoint x="910" y="300" as="targetPoint" />
            <Array as="points">
              <mxPoint x="660" y="250" />
            </Array>
          </mxGeometry>
        </mxCell>
      </root>
    </mxGraphModel>
  </diagram>
</mxfile>
